<?xml version="1.0" encoding="UTF-8"?>
<svg xmlns="http://www.w3.org/2000/svg" viewBox="0 0 1518 497" width="1518" height="497">
  <defs>
    <style>
      path { fill: #FFFFFF; fill-opacity: 1; }
    </style>
  </defs>
  <g id="lumo-logo" transform="translate(0.000000,497.000000) scale(0.100000,-0.100000)">
    <path d="M6542 3294 c-301 -66 -529 -289 -613 -599 -31 -113 -31 -325 0 -440 79 -297 298 -516 586 -586 123 -30 306 -30 420 0 302 80 520 307 591 618 22 94 24 289 5 378 -70 321 -312 565 -624 629 -93 19 -277 19 -365 0z m333 -180 c291 -71 492 -359 472 -679 -17 -278 -190 -509 -442 -588 -106 -33 -263 -30 -368 6 -141 49 -245 129 -324 249 -139 213 -149 493 -25 718 69 127 212 243 354 289 94 31 219 32 333 5z"/>
    <path d="M8575 3303 c-105 -14 -226 -69 -301 -136 -163 -147 -178 -431 -31 -580 87 -88 196 -135 462 -200 171 -42 243 -69 297 -110 57 -44 76 -73 90 -137 39 -191 -152 -339 -408 -316 -147 13 -273 62 -399 155 -86 63 -129 68 -169 20 -52 -61 -30 -112 79 -185 162 -107 298 -152 490 -161 277 -13 470 78 562 265 37 75 38 78 38 191 0 105 -3 121 -27 174 -63 134 -193 212 -470 282 -269 68 -345 99 -406 169 -35 40 -58 127 -47 179 34 154 195 240 407 217 102 -12 188 -42 285 -101 97 -58 131 -62 174 -20 32 33 37 67 15 109 -19 36 -151 114 -246 146 -113 37 -281 54 -395 39z"/>
    <path d="M10500 3295 c-247 -52 -444 -205 -556 -430 -65 -133 -86 -223 -87 -380 -1 -150 16 -238 65 -353 106 -243 301 -406 560 -467 106 -25 298 -23 403 4 380 98 635 454 612 856 -21 371 -251 665 -592 760 -82 23 -318 29 -405 10z m345 -187 c170 -49 299 -157 379 -319 102 -207 102 -419 0 -627 -98 -200 -281 -321 -509 -338 -106 -8 -206 14 -314 67 -241 119 -385 409 -342 689 62 398 415 635 786 528z"/>
    <path d="M98 3284 c-15 -8 -32 -23 -38 -34 -6 -12 -10 -276 -10 -769 l0 -750 24 -28 24 -28 501 -3 501 -3 25 25 c35 35 35 97 0 131 l-24 25 -431 0 -430 0 0 691 c0 454 -4 697 -10 710 -12 22 -61 49 -87 49 -10 -1 -30 -7 -45 -16z"/>
    <path d="M1719 3285 c-50 -28 -51 -35 -47 -586 l4 -514 28 -90 c38 -126 70 -179 156 -266 86 -87 159 -127 289 -160 73 -18 105 -21 225 -17 124 4 152 8 226 34 243 85 376 267 410 559 7 65 10 259 8 547 l-3 448 -28 27 c-35 36 -96 38 -129 5 l-23 -23 -6 -507 c-7 -558 -9 -577 -71 -693 -85 -160 -281 -248 -486 -219 -230 32 -362 171 -402 420 -6 37 -10 261 -10 527 l0 462 -22 26 c-28 32 -83 41 -119 20z"/>
    <path d="M3739 3261 l-29 -29 0 -757 0 -757 29 -29 c45 -44 114 -38 143 14 10 17 14 161 18 618 l5 597 255 -375 c140 -206 262 -379 272 -384 28 -15 83 -10 104 10 12 10 133 184 270 385 l249 367 5 -598 c3 -329 9 -606 14 -616 10 -21 57 -47 86 -47 26 0 61 18 77 39 10 12 12 195 13 779 l0 763 -25 24 c-30 31 -107 35 -144 8 -14 -9 -153 -211 -311 -450 l-287 -433 -284 427 c-156 235 -295 438 -308 450 -37 36 -113 32 -152 -6z"/>
    <path d="M12203 3276 c-17 -8 -36 -23 -42 -35 -8 -13 -11 -254 -11 -774 l0 -755 31 -26 c49 -41 116 -30 144 23 13 25 15 80 15 346 l0 315 409 0 c394 0 409 1 434 20 52 41 43 120 -18 145 -28 12 -107 15 -430 15 l-395 0 0 280 0 280 465 0 466 0 24 25 c33 32 33 84 1 122 l-24 28 -519 2 c-426 2 -524 0 -550 -11z"/>
    <path d="M13863 3283 c-59 -12 -83 -104 -38 -148 l24 -25 251 0 250 0 0 -696 0 -696 29 -29 c22 -21 39 -29 66 -29 27 0 44 8 66 29 l29 29 0 696 0 696 250 0 251 0 24 25 c33 32 33 84 1 122 l-24 28 -579 1 c-318 1 -588 0 -600 -3z"/>
  </g>
</svg>