<?xml version="1.0" encoding="UTF-8"?>
<svg id="Layer_1" data-name="Layer 1" xmlns="http://www.w3.org/2000/svg" viewBox="0 0 1500 320">
  <defs>
    <style>
      .cls-1 {
        fill: #fff;
      }

      .cls-2 {
        fill: #f9b21e;
      }
    </style>
  </defs>
  <path class="cls-2" d="M0,87.99c0-5.03,4.12-9.14,8.92-9.14s9.14,4.11,9.14,9.14v135.33h82.98c4.57,0,8.23,3.89,8.23,8.46s-3.66,8.23-8.23,8.23H8.92c-4.8,0-8.92-4.12-8.92-9.14V87.99Z"/>
  <path class="cls-2" d="M161.84,173.03v-85.04c0-5.03,4.11-9.14,8.92-9.14s9.14,4.11,9.14,9.14v83.9c0,34.52,18.52,53.95,48.92,53.95s48.23-17.83,48.23-52.81v-85.04c0-5.03,4.11-9.14,9.14-9.14s8.92,4.11,8.92,9.14v83.67c0,46.63-26.75,70.86-66.75,70.86s-66.52-24.23-66.52-69.49Z"/>
  <path class="cls-2" d="M365.28,88.22c0-4.8,4.12-8.92,8.92-8.92h2.06c3.89,0,6.63,2.06,8.46,4.8l57.15,85.95,57.15-85.95c1.83-2.97,4.8-4.8,8.46-4.8h2.06c4.8,0,8.91,4.12,8.91,8.92v143.79c0,5.03-4.11,9.14-8.91,9.14s-9.14-4.34-9.14-9.14v-119.33l-51.2,75.21c-2.06,2.97-4.34,4.57-7.54,4.57s-5.71-1.6-7.77-4.57l-50.98-74.98v119.33c0,5.03-3.89,8.91-8.92,8.91s-8.69-3.89-8.69-8.91V88.22Z"/>
  <path class="cls-2" d="M584.04,160.46v-.46c0-44.12,33.15-82.75,81.84-82.75s81.38,38.18,81.38,82.29v.46c0,44.12-33.15,82.75-81.84,82.75s-81.38-38.18-81.38-82.3ZM728.52,160.46v-.46c0-36.35-26.52-66.06-63.09-66.06s-62.63,29.26-62.63,65.61v.46c0,36.35,26.52,66.06,63.09,66.06s62.64-29.26,62.64-65.61Z"/>
  <path class="cls-1" d="M806,220.81c-2.06-1.37-3.43-3.89-3.43-6.86,0-5.03,3.89-8.92,8.69-8.92,2.29,0,4.34.91,5.49,2.06,15.09,12.8,30.17,18.97,50.52,18.97,21.49,0,35.66-11.43,35.66-27.2v-.46c0-14.86-8-23.32-41.6-30.4-36.8-8-53.72-19.89-53.72-46.18v-.46c0-25.15,22.17-43.66,52.58-43.66,21.03,0,36.35,5.26,50.98,15.77,1.83,1.37,3.89,3.89,3.89,7.31,0,4.8-3.89,8.69-8.69,8.69-2.06,0-3.66-.46-5.26-1.6-13.49-9.83-26.52-13.95-41.37-13.95-20.8,0-34.06,11.43-34.06,25.83v.46c0,15.09,8.23,23.55,43.43,31.09,35.66,7.77,52.12,20.8,52.12,45.26v.46c0,27.43-22.86,45.26-54.63,45.26-23.32,0-42.75-7.32-60.58-21.49Z"/>
  <path class="cls-1" d="M978.36,160.46v-.46c0-44.12,33.15-82.75,81.84-82.75s81.38,38.18,81.38,82.29v.46c0,44.12-33.15,82.75-81.84,82.75s-81.38-38.18-81.38-82.3ZM1122.83,160.46v-.46c0-36.35-26.52-66.06-63.09-66.06s-62.63,29.26-62.63,65.61v.46c0,36.35,26.52,66.06,63.09,66.06s62.64-29.26,62.64-65.61Z"/>
  <path class="cls-1" d="M1207.18,89.13c0-5.03,4.12-9.14,8.92-9.14h98.98c4.57,0,8.23,3.66,8.23,8.23s-3.66,8.46-8.23,8.46h-89.84v57.15h79.55c4.57,0,8.23,3.66,8.23,8.23s-3.66,8.23-8.23,8.23h-79.55v61.72c0,5.03-4.12,9.14-9.14,9.14s-8.92-4.11-8.92-9.14V89.13Z"/>
  <path class="cls-1" d="M1426.85,96.68h-46.41c-4.57,0-8.46-3.66-8.46-8.23s3.89-8.46,8.46-8.46h111.1c4.57,0,8.46,3.89,8.46,8.46s-3.89,8.23-8.46,8.23h-46.41v135.33c0,5.03-4.11,9.14-9.14,9.14s-9.14-4.11-9.14-9.14V96.68Z"/>
</svg>