<?xml version="1.0" encoding="UTF-8"?>
<svg id="Layer_1" data-name="Layer 1" xmlns="http://www.w3.org/2000/svg" viewBox="0 0 320 320">
  <defs>
    <style>
      .cls-1 {
        fill: #fff;
      }

      .cls-2 {
        fill: #fda205;
      }
    </style>
  </defs>
  <path class="cls-2" d="M10.98,251.92C3.18,251.92,0,248.17,0,241.23V75.3C0,61.72,21.39,61.72,21.39,75.3v157.54h108.11c14.74,0,14.74,19.08,0,19.08H10.98Z"/>
  <path class="cls-1" d="M172.29,206.25c7.52,23.99,39.6,29.2,62.73,29.2,24.57,0,62.73-7.52,62.73-36.71,0-25.15-30.35-27.17-62.15-29.78-39.89-3.18-82.67-6.94-82.67-50.01,0-38.16,43.94-55.21,79.2-55.21,30.35,0,68.22,7.23,80.36,40.18,4.34,11.56-15.32,16.77-19.66,6.94-8.67-21.97-39.6-25.73-60.42-25.73-19.37,0-56.95,7.8-56.95,34.11s28.91,27.75,62.44,30.35c39.6,3.47,82.1,5.49,82.1,48.85s-49.43,57.81-84.99,57.81c-29.49,0-74.58-10.12-84.12-44.8-3.47-12.72,19.08-17.06,21.39-5.2Z"/>
</svg>